<mxfile host="app.diagrams.net" modified="2022-12-17T15:00:55.055Z" agent="5.0 (Windows NT 10.0; Win64; x64) AppleWebKit/537.36 (KHTML, like Gecko) Chrome/108.0.0.0 Safari/537.36" etag="tntlUTdV7jL3D65nsgjS" version="20.7.4" type="github">
  <diagram name="Page-1" id="2a216829-ef6e-dabb-86c1-c78162f3ba2b">
    <mxGraphModel dx="2074" dy="2256" grid="1" gridSize="10" guides="1" tooltips="1" connect="1" arrows="1" fold="1" page="1" pageScale="1" pageWidth="850" pageHeight="1100" background="none" math="0" shadow="0">
      <root>
        <mxCell id="0" />
        <mxCell id="1" parent="0" />
        <mxCell id="8k82SryMJ40sSkUZ9wEO-1" value="" style="rounded=0;whiteSpace=wrap;html=1;fillColor=none;strokeWidth=2;" parent="1" vertex="1">
          <mxGeometry x="70" y="-240" width="1410" height="250" as="geometry" />
        </mxCell>
        <mxCell id="OT7cg2ur5c4f-DrXH7eK-121" value="" style="rounded=0;whiteSpace=wrap;html=1;fillColor=none;" parent="1" vertex="1">
          <mxGeometry x="70" y="830" width="1410" height="150" as="geometry" />
        </mxCell>
        <mxCell id="OT7cg2ur5c4f-DrXH7eK-118" value="" style="rounded=0;whiteSpace=wrap;html=1;fillColor=none;strokeWidth=2;" parent="1" vertex="1">
          <mxGeometry x="70" y="550" width="1410" height="280" as="geometry" />
        </mxCell>
        <mxCell id="OT7cg2ur5c4f-DrXH7eK-117" value="" style="rounded=0;whiteSpace=wrap;html=1;fillColor=none;strokeWidth=2;" parent="1" vertex="1">
          <mxGeometry x="70" y="10" width="1410" height="540" as="geometry" />
        </mxCell>
        <mxCell id="OT7cg2ur5c4f-DrXH7eK-4" value="Ja" style="text;html=1;strokeColor=none;fillColor=none;align=center;verticalAlign=middle;whiteSpace=wrap;rounded=0;" parent="1" vertex="1">
          <mxGeometry x="670" y="190" width="60" height="30" as="geometry" />
        </mxCell>
        <mxCell id="OT7cg2ur5c4f-DrXH7eK-17" value="Neuanforderung" style="text;html=1;strokeColor=none;fillColor=none;align=center;verticalAlign=middle;whiteSpace=wrap;rounded=0;" parent="1" vertex="1">
          <mxGeometry x="625" y="-143.12" width="60" height="30" as="geometry" />
        </mxCell>
        <mxCell id="OT7cg2ur5c4f-DrXH7eK-21" value="Incident/Fehler" style="text;html=1;strokeColor=none;fillColor=none;align=center;verticalAlign=middle;whiteSpace=wrap;rounded=0;" parent="1" vertex="1">
          <mxGeometry x="555" y="-83.12" width="100" height="35" as="geometry" />
        </mxCell>
        <mxCell id="OT7cg2ur5c4f-DrXH7eK-25" value="Individual (P31)&lt;br&gt;Standard (P32)" style="shape=ext;rounded=1;html=1;whiteSpace=wrap;" parent="1" vertex="1">
          <mxGeometry x="990" y="110" width="120" height="80" as="geometry" />
        </mxCell>
        <mxCell id="OT7cg2ur5c4f-DrXH7eK-28" style="edgeStyle=orthogonalEdgeStyle;rounded=0;orthogonalLoop=1;jettySize=auto;html=1;exitX=1;exitY=0.5;exitDx=0;exitDy=0;" parent="1" source="OT7cg2ur5c4f-DrXH7eK-25" target="OT7cg2ur5c4f-DrXH7eK-29" edge="1">
          <mxGeometry relative="1" as="geometry">
            <mxPoint x="1232.1" y="120" as="sourcePoint" />
          </mxGeometry>
        </mxCell>
        <mxCell id="OT7cg2ur5c4f-DrXH7eK-29" value="" style="points=[[0.145,0.145,0],[0.5,0,0],[0.855,0.145,0],[1,0.5,0],[0.855,0.855,0],[0.5,1,0],[0.145,0.855,0],[0,0.5,0]];shape=mxgraph.bpmn.event;html=1;verticalLabelPosition=bottom;labelBackgroundColor=#ffffff;verticalAlign=top;align=center;perimeter=ellipsePerimeter;outlineConnect=0;aspect=fixed;outline=end;symbol=terminate;" parent="1" vertex="1">
          <mxGeometry x="1150" y="125" width="50" height="50" as="geometry" />
        </mxCell>
        <mxCell id="OT7cg2ur5c4f-DrXH7eK-31" value="Kann der Incident/Fehler durch den Support MA gelöst werden?" style="text;html=1;strokeColor=none;fillColor=none;align=center;verticalAlign=middle;whiteSpace=wrap;rounded=0;" parent="1" vertex="1">
          <mxGeometry x="490" y="190" width="140" height="65" as="geometry" />
        </mxCell>
        <mxCell id="OT7cg2ur5c4f-DrXH7eK-34" value="" style="points=[[0.145,0.145,0],[0.5,0,0],[0.855,0.145,0],[1,0.5,0],[0.855,0.855,0],[0.5,1,0],[0.145,0.855,0],[0,0.5,0]];shape=mxgraph.bpmn.event;html=1;verticalLabelPosition=bottom;labelBackgroundColor=#ffffff;verticalAlign=top;align=center;perimeter=ellipsePerimeter;outlineConnect=0;aspect=fixed;outline=end;symbol=terminate;" parent="1" vertex="1">
          <mxGeometry x="730" y="190" width="50" height="50" as="geometry" />
        </mxCell>
        <mxCell id="OT7cg2ur5c4f-DrXH7eK-36" style="edgeStyle=orthogonalEdgeStyle;rounded=0;orthogonalLoop=1;jettySize=auto;html=1;exitX=0.5;exitY=1;exitDx=0;exitDy=0;" parent="1" edge="1">
          <mxGeometry relative="1" as="geometry">
            <mxPoint x="735" y="422.5" as="sourcePoint" />
            <mxPoint x="735" y="422.5" as="targetPoint" />
          </mxGeometry>
        </mxCell>
        <mxCell id="OT7cg2ur5c4f-DrXH7eK-48" style="edgeStyle=orthogonalEdgeStyle;rounded=0;orthogonalLoop=1;jettySize=auto;html=1;" parent="1" source="OT7cg2ur5c4f-DrXH7eK-41" target="OT7cg2ur5c4f-DrXH7eK-72" edge="1">
          <mxGeometry relative="1" as="geometry">
            <mxPoint x="655" y="477.5" as="targetPoint" />
          </mxGeometry>
        </mxCell>
        <mxCell id="OT7cg2ur5c4f-DrXH7eK-74" style="edgeStyle=orthogonalEdgeStyle;rounded=0;orthogonalLoop=1;jettySize=auto;html=1;entryX=0;entryY=0.5;entryDx=0;entryDy=0;entryPerimeter=0;" parent="1" source="OT7cg2ur5c4f-DrXH7eK-41" target="OT7cg2ur5c4f-DrXH7eK-34" edge="1">
          <mxGeometry relative="1" as="geometry">
            <mxPoint x="715.48" y="402.6399999999999" as="targetPoint" />
            <Array as="points">
              <mxPoint x="690" y="215" />
              <mxPoint x="690" y="215" />
            </Array>
          </mxGeometry>
        </mxCell>
        <mxCell id="OT7cg2ur5c4f-DrXH7eK-41" value="" style="points=[[0.25,0.25,0],[0.5,0,0],[0.75,0.25,0],[1,0.5,0],[0.75,0.75,0],[0.5,1,0],[0.25,0.75,0],[0,0.5,0]];shape=mxgraph.bpmn.gateway2;html=1;verticalLabelPosition=bottom;labelBackgroundColor=#ffffff;verticalAlign=top;align=center;perimeter=rhombusPerimeter;outlineConnect=0;outline=none;symbol=none;gwType=exclusive;" parent="1" vertex="1">
          <mxGeometry x="625" y="190" width="50" height="50" as="geometry" />
        </mxCell>
        <mxCell id="OT7cg2ur5c4f-DrXH7eK-42" value="Frage" style="text;html=1;strokeColor=none;fillColor=none;align=center;verticalAlign=middle;whiteSpace=wrap;rounded=0;" parent="1" vertex="1">
          <mxGeometry x="580" y="-113.12" width="60" height="30" as="geometry" />
        </mxCell>
        <mxCell id="OT7cg2ur5c4f-DrXH7eK-47" style="edgeStyle=orthogonalEdgeStyle;rounded=0;orthogonalLoop=1;jettySize=auto;html=1;exitX=0.5;exitY=1;exitDx=0;exitDy=0;" parent="1" edge="1">
          <mxGeometry relative="1" as="geometry">
            <mxPoint x="655" y="522.5" as="sourcePoint" />
            <mxPoint x="655" y="522.5" as="targetPoint" />
          </mxGeometry>
        </mxCell>
        <mxCell id="OT7cg2ur5c4f-DrXH7eK-52" value="Nein" style="text;html=1;strokeColor=none;fillColor=none;align=center;verticalAlign=middle;whiteSpace=wrap;rounded=0;" parent="1" vertex="1">
          <mxGeometry x="655" y="250" width="60" height="30" as="geometry" />
        </mxCell>
        <mxCell id="OT7cg2ur5c4f-DrXH7eK-54" value="Der Support MA versteht die Frage. Kann die Frage durch den Support MA gelöst werden?" style="text;html=1;strokeColor=none;fillColor=none;align=center;verticalAlign=middle;whiteSpace=wrap;rounded=0;" parent="1" vertex="1">
          <mxGeometry x="745" y="80" width="180" height="40" as="geometry" />
        </mxCell>
        <mxCell id="OT7cg2ur5c4f-DrXH7eK-57" value="" style="points=[[0.145,0.145,0],[0.5,0,0],[0.855,0.145,0],[1,0.5,0],[0.855,0.855,0],[0.5,1,0],[0.145,0.855,0],[0,0.5,0]];shape=mxgraph.bpmn.event;html=1;verticalLabelPosition=bottom;labelBackgroundColor=#ffffff;verticalAlign=top;align=center;perimeter=ellipsePerimeter;outlineConnect=0;aspect=fixed;outline=end;symbol=terminate;" parent="1" vertex="1">
          <mxGeometry x="904.5999999999999" y="130" width="50" height="50" as="geometry" />
        </mxCell>
        <mxCell id="OT7cg2ur5c4f-DrXH7eK-73" style="edgeStyle=orthogonalEdgeStyle;rounded=0;orthogonalLoop=1;jettySize=auto;html=1;entryX=1;entryY=0.5;entryDx=0;entryDy=0;" parent="1" source="OT7cg2ur5c4f-DrXH7eK-59" target="OT7cg2ur5c4f-DrXH7eK-72" edge="1">
          <mxGeometry relative="1" as="geometry">
            <Array as="points">
              <mxPoint x="840" y="320" />
            </Array>
            <mxPoint x="650" y="520" as="targetPoint" />
          </mxGeometry>
        </mxCell>
        <mxCell id="8k82SryMJ40sSkUZ9wEO-14" style="edgeStyle=orthogonalEdgeStyle;rounded=0;orthogonalLoop=1;jettySize=auto;html=1;" parent="1" source="OT7cg2ur5c4f-DrXH7eK-59" target="OT7cg2ur5c4f-DrXH7eK-57" edge="1">
          <mxGeometry relative="1" as="geometry" />
        </mxCell>
        <mxCell id="OT7cg2ur5c4f-DrXH7eK-59" value="" style="points=[[0.25,0.25,0],[0.5,0,0],[0.75,0.25,0],[1,0.5,0],[0.75,0.75,0],[0.5,1,0],[0.25,0.75,0],[0,0.5,0]];shape=mxgraph.bpmn.gateway2;html=1;verticalLabelPosition=bottom;labelBackgroundColor=#ffffff;verticalAlign=top;align=center;perimeter=rhombusPerimeter;outlineConnect=0;outline=none;symbol=none;gwType=exclusive;" parent="1" vertex="1">
          <mxGeometry x="815" y="130" width="50" height="50" as="geometry" />
        </mxCell>
        <mxCell id="OT7cg2ur5c4f-DrXH7eK-68" value="Ja" style="text;html=1;strokeColor=none;fillColor=none;align=center;verticalAlign=middle;whiteSpace=wrap;rounded=0;" parent="1" vertex="1">
          <mxGeometry x="844.6" y="150" width="60" height="30" as="geometry" />
        </mxCell>
        <mxCell id="OT7cg2ur5c4f-DrXH7eK-69" value="Nein" style="text;html=1;strokeColor=none;fillColor=none;align=center;verticalAlign=middle;whiteSpace=wrap;rounded=0;" parent="1" vertex="1">
          <mxGeometry x="825" y="180" width="60" height="30" as="geometry" />
        </mxCell>
        <mxCell id="OT7cg2ur5c4f-DrXH7eK-77" style="edgeStyle=orthogonalEdgeStyle;rounded=0;orthogonalLoop=1;jettySize=auto;html=1;entryX=0;entryY=0.5;entryDx=0;entryDy=0;entryPerimeter=0;exitX=0.5;exitY=1;exitDx=0;exitDy=0;" parent="1" source="OT7cg2ur5c4f-DrXH7eK-72" target="OT7cg2ur5c4f-DrXH7eK-76" edge="1">
          <mxGeometry relative="1" as="geometry" />
        </mxCell>
        <mxCell id="OT7cg2ur5c4f-DrXH7eK-72" value="Der Fall wird in Support Teambesprechung Analysiert" style="shape=ext;rounded=1;html=1;whiteSpace=wrap;" parent="1" vertex="1">
          <mxGeometry x="590" y="280" width="120" height="80" as="geometry" />
        </mxCell>
        <mxCell id="8k82SryMJ40sSkUZ9wEO-26" style="edgeStyle=orthogonalEdgeStyle;rounded=0;orthogonalLoop=1;jettySize=auto;html=1;" parent="1" source="OT7cg2ur5c4f-DrXH7eK-76" target="OT7cg2ur5c4f-DrXH7eK-84" edge="1">
          <mxGeometry relative="1" as="geometry" />
        </mxCell>
        <mxCell id="OT7cg2ur5c4f-DrXH7eK-76" value="" style="points=[[0.25,0.25,0],[0.5,0,0],[0.75,0.25,0],[1,0.5,0],[0.75,0.75,0],[0.5,1,0],[0.25,0.75,0],[0,0.5,0]];shape=mxgraph.bpmn.gateway2;html=1;verticalLabelPosition=bottom;labelBackgroundColor=#ffffff;verticalAlign=top;align=center;perimeter=rhombusPerimeter;outlineConnect=0;outline=none;symbol=none;gwType=exclusive;" parent="1" vertex="1">
          <mxGeometry x="745" y="440" width="50" height="50" as="geometry" />
        </mxCell>
        <mxCell id="OT7cg2ur5c4f-DrXH7eK-78" value="Konnte der Incident / Fehler / Frage durch die Support Teambesprechung gelöst werden?" style="text;html=1;strokeColor=none;fillColor=none;align=center;verticalAlign=middle;whiteSpace=wrap;rounded=0;" parent="1" vertex="1">
          <mxGeometry x="710" y="370" width="150" height="70" as="geometry" />
        </mxCell>
        <mxCell id="OT7cg2ur5c4f-DrXH7eK-79" style="edgeStyle=orthogonalEdgeStyle;rounded=0;orthogonalLoop=1;jettySize=auto;html=1;exitX=1;exitY=0.5;exitDx=0;exitDy=0;entryX=0;entryY=0.5;entryDx=0;entryDy=0;entryPerimeter=0;exitPerimeter=0;" parent="1" source="OT7cg2ur5c4f-DrXH7eK-76" target="OT7cg2ur5c4f-DrXH7eK-80" edge="1">
          <mxGeometry relative="1" as="geometry">
            <mxPoint x="805" y="630" as="sourcePoint" />
            <Array as="points">
              <mxPoint x="835" y="465" />
            </Array>
          </mxGeometry>
        </mxCell>
        <mxCell id="OT7cg2ur5c4f-DrXH7eK-80" value="" style="points=[[0.145,0.145,0],[0.5,0,0],[0.855,0.145,0],[1,0.5,0],[0.855,0.855,0],[0.5,1,0],[0.145,0.855,0],[0,0.5,0]];shape=mxgraph.bpmn.event;html=1;verticalLabelPosition=bottom;labelBackgroundColor=#ffffff;verticalAlign=top;align=center;perimeter=ellipsePerimeter;outlineConnect=0;aspect=fixed;outline=end;symbol=terminate;" parent="1" vertex="1">
          <mxGeometry x="835" y="440" width="50" height="50" as="geometry" />
        </mxCell>
        <mxCell id="OT7cg2ur5c4f-DrXH7eK-82" value="Nein" style="text;html=1;strokeColor=none;fillColor=none;align=center;verticalAlign=middle;whiteSpace=wrap;rounded=0;" parent="1" vertex="1">
          <mxGeometry x="755" y="490" width="60" height="30" as="geometry" />
        </mxCell>
        <mxCell id="OT7cg2ur5c4f-DrXH7eK-83" value="Ja" style="text;html=1;strokeColor=none;fillColor=none;align=center;verticalAlign=middle;whiteSpace=wrap;rounded=0;" parent="1" vertex="1">
          <mxGeometry x="780" y="460" width="60" height="30" as="geometry" />
        </mxCell>
        <mxCell id="OT7cg2ur5c4f-DrXH7eK-100" style="edgeStyle=orthogonalEdgeStyle;rounded=0;orthogonalLoop=1;jettySize=auto;html=1;" parent="1" source="OT7cg2ur5c4f-DrXH7eK-84" target="OT7cg2ur5c4f-DrXH7eK-95" edge="1">
          <mxGeometry relative="1" as="geometry" />
        </mxCell>
        <mxCell id="OT7cg2ur5c4f-DrXH7eK-84" value="Fall wird mit dem ursprünglichen PL besprochen bzw. an ihn weitergeleitet." style="shape=ext;rounded=1;html=1;whiteSpace=wrap;" parent="1" vertex="1">
          <mxGeometry x="710" y="600" width="120" height="80" as="geometry" />
        </mxCell>
        <mxCell id="OT7cg2ur5c4f-DrXH7eK-94" style="edgeStyle=orthogonalEdgeStyle;rounded=0;orthogonalLoop=1;jettySize=auto;html=1;" parent="1" source="OT7cg2ur5c4f-DrXH7eK-95" edge="1">
          <mxGeometry relative="1" as="geometry">
            <mxPoint x="905" y="730" as="targetPoint" />
          </mxGeometry>
        </mxCell>
        <mxCell id="OT7cg2ur5c4f-DrXH7eK-95" value="" style="points=[[0.25,0.25,0],[0.5,0,0],[0.75,0.25,0],[1,0.5,0],[0.75,0.75,0],[0.5,1,0],[0.25,0.75,0],[0,0.5,0]];shape=mxgraph.bpmn.gateway2;html=1;verticalLabelPosition=bottom;labelBackgroundColor=#ffffff;verticalAlign=top;align=center;perimeter=rhombusPerimeter;outlineConnect=0;outline=none;symbol=none;gwType=exclusive;" parent="1" vertex="1">
          <mxGeometry x="880" y="615" width="50" height="50" as="geometry" />
        </mxCell>
        <mxCell id="OT7cg2ur5c4f-DrXH7eK-96" style="edgeStyle=orthogonalEdgeStyle;rounded=0;orthogonalLoop=1;jettySize=auto;html=1;exitX=0.5;exitY=0;exitDx=0;exitDy=0;entryX=0;entryY=0.5;entryDx=0;entryDy=0;entryPerimeter=0;" parent="1" target="OT7cg2ur5c4f-DrXH7eK-97" edge="1">
          <mxGeometry relative="1" as="geometry">
            <mxPoint x="930" y="639.5" as="sourcePoint" />
          </mxGeometry>
        </mxCell>
        <mxCell id="OT7cg2ur5c4f-DrXH7eK-97" value="" style="points=[[0.145,0.145,0],[0.5,0,0],[0.855,0.145,0],[1,0.5,0],[0.855,0.855,0],[0.5,1,0],[0.145,0.855,0],[0,0.5,0]];shape=mxgraph.bpmn.event;html=1;verticalLabelPosition=bottom;labelBackgroundColor=#ffffff;verticalAlign=top;align=center;perimeter=ellipsePerimeter;outlineConnect=0;aspect=fixed;outline=end;symbol=terminate;" parent="1" vertex="1">
          <mxGeometry x="969.6" y="615" width="50" height="50" as="geometry" />
        </mxCell>
        <mxCell id="OT7cg2ur5c4f-DrXH7eK-98" value="Nein" style="text;html=1;strokeColor=none;fillColor=none;align=center;verticalAlign=middle;whiteSpace=wrap;rounded=0;" parent="1" vertex="1">
          <mxGeometry x="899.6" y="680" width="60" height="30" as="geometry" />
        </mxCell>
        <mxCell id="OT7cg2ur5c4f-DrXH7eK-99" value="Ja" style="text;html=1;strokeColor=none;fillColor=none;align=center;verticalAlign=middle;whiteSpace=wrap;rounded=0;" parent="1" vertex="1">
          <mxGeometry x="915.4" y="635" width="59.6" height="30" as="geometry" />
        </mxCell>
        <mxCell id="OT7cg2ur5c4f-DrXH7eK-101" value="Konnte der Incident / Fehler / Frage durch den PL gelöst werden?" style="text;html=1;strokeColor=none;fillColor=none;align=center;verticalAlign=middle;whiteSpace=wrap;rounded=0;" parent="1" vertex="1">
          <mxGeometry x="830" y="550" width="150" height="70" as="geometry" />
        </mxCell>
        <mxCell id="OT7cg2ur5c4f-DrXH7eK-105" style="edgeStyle=orthogonalEdgeStyle;rounded=0;orthogonalLoop=1;jettySize=auto;html=1;entryX=0;entryY=0.5;entryDx=0;entryDy=0;entryPerimeter=0;" parent="1" source="OT7cg2ur5c4f-DrXH7eK-103" target="OT7cg2ur5c4f-DrXH7eK-104" edge="1">
          <mxGeometry relative="1" as="geometry" />
        </mxCell>
        <mxCell id="OT7cg2ur5c4f-DrXH7eK-103" value="Auftrag (P33)" style="shape=ext;rounded=1;html=1;whiteSpace=wrap;" parent="1" vertex="1">
          <mxGeometry x="849.6" y="730" width="120" height="80" as="geometry" />
        </mxCell>
        <mxCell id="OT7cg2ur5c4f-DrXH7eK-108" style="edgeStyle=orthogonalEdgeStyle;rounded=0;orthogonalLoop=1;jettySize=auto;html=1;entryX=0;entryY=0.5;entryDx=0;entryDy=0;" parent="1" source="OT7cg2ur5c4f-DrXH7eK-104" target="OT7cg2ur5c4f-DrXH7eK-107" edge="1">
          <mxGeometry relative="1" as="geometry" />
        </mxCell>
        <mxCell id="OT7cg2ur5c4f-DrXH7eK-112" style="edgeStyle=orthogonalEdgeStyle;rounded=0;orthogonalLoop=1;jettySize=auto;html=1;entryX=0.547;entryY=0.004;entryDx=0;entryDy=0;entryPerimeter=0;" parent="1" source="OT7cg2ur5c4f-DrXH7eK-104" target="OT7cg2ur5c4f-DrXH7eK-111" edge="1">
          <mxGeometry relative="1" as="geometry" />
        </mxCell>
        <mxCell id="OT7cg2ur5c4f-DrXH7eK-104" value="" style="points=[[0.25,0.25,0],[0.5,0,0],[0.75,0.25,0],[1,0.5,0],[0.75,0.75,0],[0.5,1,0],[0.25,0.75,0],[0,0.5,0]];shape=mxgraph.bpmn.gateway2;html=1;verticalLabelPosition=bottom;labelBackgroundColor=#ffffff;verticalAlign=top;align=center;perimeter=rhombusPerimeter;outlineConnect=0;outline=none;symbol=none;gwType=exclusive;" parent="1" vertex="1">
          <mxGeometry x="1010" y="745" width="50" height="50" as="geometry" />
        </mxCell>
        <mxCell id="OT7cg2ur5c4f-DrXH7eK-106" value="Konnte der Incident / Fehler / Frage gelöst werden?" style="text;html=1;strokeColor=none;fillColor=none;align=center;verticalAlign=middle;whiteSpace=wrap;rounded=0;" parent="1" vertex="1">
          <mxGeometry x="960" y="690" width="150" height="70" as="geometry" />
        </mxCell>
        <mxCell id="OT7cg2ur5c4f-DrXH7eK-116" style="edgeStyle=orthogonalEdgeStyle;rounded=0;orthogonalLoop=1;jettySize=auto;html=1;entryX=0;entryY=0.5;entryDx=0;entryDy=0;entryPerimeter=0;" parent="1" source="OT7cg2ur5c4f-DrXH7eK-107" target="OT7cg2ur5c4f-DrXH7eK-115" edge="1">
          <mxGeometry relative="1" as="geometry" />
        </mxCell>
        <mxCell id="OT7cg2ur5c4f-DrXH7eK-107" value="Feedback an Kunden bzw. Ausliefern Lösung" style="shape=ext;rounded=1;html=1;whiteSpace=wrap;" parent="1" vertex="1">
          <mxGeometry x="1150" y="435" width="120" height="80" as="geometry" />
        </mxCell>
        <mxCell id="OT7cg2ur5c4f-DrXH7eK-109" value="Ja" style="text;html=1;strokeColor=none;fillColor=none;align=center;verticalAlign=middle;whiteSpace=wrap;rounded=0;" parent="1" vertex="1">
          <mxGeometry x="1060" y="745" width="59.6" height="30" as="geometry" />
        </mxCell>
        <mxCell id="OT7cg2ur5c4f-DrXH7eK-113" style="edgeStyle=orthogonalEdgeStyle;rounded=0;orthogonalLoop=1;jettySize=auto;html=1;entryX=0.5;entryY=1;entryDx=0;entryDy=0;" parent="1" source="OT7cg2ur5c4f-DrXH7eK-111" target="OT7cg2ur5c4f-DrXH7eK-107" edge="1">
          <mxGeometry relative="1" as="geometry" />
        </mxCell>
        <mxCell id="OT7cg2ur5c4f-DrXH7eK-111" value="Support MA, PL und Entwicklung suchen Alternative / Lösung" style="shape=ext;rounded=1;html=1;whiteSpace=wrap;" parent="1" vertex="1">
          <mxGeometry x="969.6" y="870" width="120" height="80" as="geometry" />
        </mxCell>
        <mxCell id="OT7cg2ur5c4f-DrXH7eK-115" value="" style="points=[[0.145,0.145,0],[0.5,0,0],[0.855,0.145,0],[1,0.5,0],[0.855,0.855,0],[0.5,1,0],[0.145,0.855,0],[0,0.5,0]];shape=mxgraph.bpmn.event;html=1;verticalLabelPosition=bottom;labelBackgroundColor=#ffffff;verticalAlign=top;align=center;perimeter=ellipsePerimeter;outlineConnect=0;aspect=fixed;outline=end;symbol=terminate;" parent="1" vertex="1">
          <mxGeometry x="1330" y="450" width="50" height="50" as="geometry" />
        </mxCell>
        <mxCell id="OT7cg2ur5c4f-DrXH7eK-119" value="" style="rounded=0;whiteSpace=wrap;html=1;fillColor=none;strokeWidth=2;" parent="1" vertex="1">
          <mxGeometry x="70" y="-240" width="60" height="1220" as="geometry" />
        </mxCell>
        <mxCell id="OT7cg2ur5c4f-DrXH7eK-120" value="Support MA" style="text;html=1;strokeColor=none;fillColor=none;align=center;verticalAlign=middle;whiteSpace=wrap;rounded=0;direction=east;rotation=270;" parent="1" vertex="1">
          <mxGeometry x="70" y="321.25" width="60" height="30" as="geometry" />
        </mxCell>
        <mxCell id="OT7cg2ur5c4f-DrXH7eK-122" value="Projektleiter" style="text;html=1;strokeColor=none;fillColor=none;align=center;verticalAlign=middle;whiteSpace=wrap;rounded=0;direction=east;rotation=270;" parent="1" vertex="1">
          <mxGeometry x="70" y="671.25" width="60" height="30" as="geometry" />
        </mxCell>
        <mxCell id="OT7cg2ur5c4f-DrXH7eK-123" value="Support MA, PL und Entwicklung" style="text;html=1;strokeColor=none;fillColor=none;align=center;verticalAlign=middle;whiteSpace=wrap;rounded=0;direction=east;rotation=270;" parent="1" vertex="1">
          <mxGeometry x="70" y="891.25" width="60" height="30" as="geometry" />
        </mxCell>
        <mxCell id="8k82SryMJ40sSkUZ9wEO-2" value="Kunde" style="text;html=1;strokeColor=none;fillColor=none;align=center;verticalAlign=middle;whiteSpace=wrap;rounded=0;direction=east;rotation=270;" parent="1" vertex="1">
          <mxGeometry x="70" y="-130" width="60" height="30" as="geometry" />
        </mxCell>
        <mxCell id="XhimP7yNyc7SuA0uO1DH-27" style="edgeStyle=orthogonalEdgeStyle;rounded=0;orthogonalLoop=1;jettySize=auto;html=1;entryX=0;entryY=0.5;entryDx=0;entryDy=0;entryPerimeter=0;" edge="1" parent="1" source="8k82SryMJ40sSkUZ9wEO-3" target="XhimP7yNyc7SuA0uO1DH-23">
          <mxGeometry relative="1" as="geometry" />
        </mxCell>
        <mxCell id="8k82SryMJ40sSkUZ9wEO-3" value="" style="points=[[0.145,0.145,0],[0.5,0,0],[0.855,0.145,0],[1,0.5,0],[0.855,0.855,0],[0.5,1,0],[0.145,0.855,0],[0,0.5,0]];shape=mxgraph.bpmn.event;html=1;verticalLabelPosition=bottom;labelBackgroundColor=#ffffff;verticalAlign=top;align=center;perimeter=ellipsePerimeter;outlineConnect=0;aspect=fixed;outline=standard;symbol=message;" parent="1" vertex="1">
          <mxGeometry x="150" y="-117.5" width="50" height="50" as="geometry" />
        </mxCell>
        <mxCell id="8k82SryMJ40sSkUZ9wEO-7" style="edgeStyle=orthogonalEdgeStyle;rounded=0;orthogonalLoop=1;jettySize=auto;html=1;" parent="1" source="8k82SryMJ40sSkUZ9wEO-4" target="8k82SryMJ40sSkUZ9wEO-6" edge="1">
          <mxGeometry relative="1" as="geometry" />
        </mxCell>
        <mxCell id="8k82SryMJ40sSkUZ9wEO-4" value="Der Kunde erstellt ein Ticket im Ticketingsystem mit allen notwendigen Informationen." style="shape=ext;rounded=1;html=1;whiteSpace=wrap;" parent="1" vertex="1">
          <mxGeometry x="295" y="-133.44" width="130" height="81.88" as="geometry" />
        </mxCell>
        <mxCell id="8k82SryMJ40sSkUZ9wEO-16" style="edgeStyle=orthogonalEdgeStyle;rounded=0;orthogonalLoop=1;jettySize=auto;html=1;" parent="1" source="8k82SryMJ40sSkUZ9wEO-6" target="OT7cg2ur5c4f-DrXH7eK-25" edge="1">
          <mxGeometry relative="1" as="geometry">
            <Array as="points">
              <mxPoint x="505" y="-120" />
              <mxPoint x="1050" y="-120" />
            </Array>
            <mxPoint x="1052" y="80" as="targetPoint" />
          </mxGeometry>
        </mxCell>
        <mxCell id="8k82SryMJ40sSkUZ9wEO-17" style="edgeStyle=orthogonalEdgeStyle;rounded=0;orthogonalLoop=1;jettySize=auto;html=1;entryX=0;entryY=0.5;entryDx=0;entryDy=0;entryPerimeter=0;" parent="1" source="8k82SryMJ40sSkUZ9wEO-6" target="OT7cg2ur5c4f-DrXH7eK-59" edge="1">
          <mxGeometry relative="1" as="geometry">
            <Array as="points">
              <mxPoint x="710" y="-92" />
              <mxPoint x="710" y="155" />
            </Array>
          </mxGeometry>
        </mxCell>
        <mxCell id="8k82SryMJ40sSkUZ9wEO-18" style="edgeStyle=orthogonalEdgeStyle;rounded=0;orthogonalLoop=1;jettySize=auto;html=1;entryX=0.5;entryY=0;entryDx=0;entryDy=0;entryPerimeter=0;" parent="1" source="8k82SryMJ40sSkUZ9wEO-6" target="OT7cg2ur5c4f-DrXH7eK-41" edge="1">
          <mxGeometry relative="1" as="geometry">
            <Array as="points">
              <mxPoint x="505" y="-60" />
              <mxPoint x="650" y="-60" />
              <mxPoint x="650" y="190" />
            </Array>
          </mxGeometry>
        </mxCell>
        <mxCell id="8k82SryMJ40sSkUZ9wEO-6" value="" style="points=[[0.25,0.25,0],[0.5,0,0],[0.75,0.25,0],[1,0.5,0],[0.75,0.75,0],[0.5,1,0],[0.25,0.75,0],[0,0.5,0]];shape=mxgraph.bpmn.gateway2;html=1;verticalLabelPosition=bottom;labelBackgroundColor=#ffffff;verticalAlign=top;align=center;perimeter=rhombusPerimeter;outlineConnect=0;outline=none;symbol=none;gwType=exclusive;" parent="1" vertex="1">
          <mxGeometry x="480" y="-117.5" width="50" height="50" as="geometry" />
        </mxCell>
        <mxCell id="8k82SryMJ40sSkUZ9wEO-8" value="Der Kunde kategorisiert sein Anliegen." style="text;html=1;strokeColor=none;fillColor=none;align=center;verticalAlign=middle;whiteSpace=wrap;rounded=0;" parent="1" vertex="1">
          <mxGeometry x="420" y="-160" width="170" height="40" as="geometry" />
        </mxCell>
        <mxCell id="XhimP7yNyc7SuA0uO1DH-1" value="Der Support MA nimmt das Anliegen des Kunden per Telefon oder E-Mail an" style="shape=ext;rounded=1;html=1;whiteSpace=wrap;" vertex="1" parent="1">
          <mxGeometry x="295" y="70" width="120" height="80" as="geometry" />
        </mxCell>
        <mxCell id="XhimP7yNyc7SuA0uO1DH-2" style="edgeStyle=orthogonalEdgeStyle;rounded=0;html=1;jettySize=auto;orthogonalLoop=1;" edge="1" parent="1" source="XhimP7yNyc7SuA0uO1DH-1" target="XhimP7yNyc7SuA0uO1DH-7">
          <mxGeometry relative="1" as="geometry">
            <mxPoint x="509.97" y="150" as="targetPoint" />
            <Array as="points">
              <mxPoint x="430" y="105" />
              <mxPoint x="430" y="105" />
            </Array>
          </mxGeometry>
        </mxCell>
        <mxCell id="XhimP7yNyc7SuA0uO1DH-5" value="Der Support MA versteht und kategorisiert das Anliegen" style="text;html=1;strokeColor=none;fillColor=none;align=center;verticalAlign=middle;whiteSpace=wrap;rounded=0;" vertex="1" parent="1">
          <mxGeometry x="420" y="125" width="170" height="40" as="geometry" />
        </mxCell>
        <mxCell id="XhimP7yNyc7SuA0uO1DH-12" style="edgeStyle=orthogonalEdgeStyle;rounded=0;orthogonalLoop=1;jettySize=auto;html=1;exitX=0.5;exitY=0;exitDx=0;exitDy=0;exitPerimeter=0;" edge="1" parent="1" source="XhimP7yNyc7SuA0uO1DH-7">
          <mxGeometry relative="1" as="geometry">
            <mxPoint x="1050" y="30" as="targetPoint" />
            <Array as="points">
              <mxPoint x="505" y="30" />
              <mxPoint x="1050" y="30" />
            </Array>
          </mxGeometry>
        </mxCell>
        <mxCell id="XhimP7yNyc7SuA0uO1DH-14" style="edgeStyle=orthogonalEdgeStyle;rounded=0;orthogonalLoop=1;jettySize=auto;html=1;exitX=1;exitY=0.5;exitDx=0;exitDy=0;exitPerimeter=0;" edge="1" parent="1" source="XhimP7yNyc7SuA0uO1DH-7">
          <mxGeometry relative="1" as="geometry">
            <mxPoint x="710" y="60" as="targetPoint" />
            <Array as="points">
              <mxPoint x="520" y="105" />
              <mxPoint x="520" y="60" />
              <mxPoint x="710" y="60" />
            </Array>
          </mxGeometry>
        </mxCell>
        <mxCell id="XhimP7yNyc7SuA0uO1DH-22" style="edgeStyle=orthogonalEdgeStyle;rounded=0;orthogonalLoop=1;jettySize=auto;html=1;" edge="1" parent="1" source="XhimP7yNyc7SuA0uO1DH-7">
          <mxGeometry relative="1" as="geometry">
            <mxPoint x="650" y="105" as="targetPoint" />
          </mxGeometry>
        </mxCell>
        <mxCell id="XhimP7yNyc7SuA0uO1DH-7" value="" style="points=[[0.25,0.25,0],[0.5,0,0],[0.75,0.25,0],[1,0.5,0],[0.75,0.75,0],[0.5,1,0],[0.25,0.75,0],[0,0.5,0]];shape=mxgraph.bpmn.gateway2;html=1;verticalLabelPosition=bottom;labelBackgroundColor=#ffffff;verticalAlign=top;align=center;perimeter=rhombusPerimeter;outlineConnect=0;outline=none;symbol=none;gwType=exclusive;" vertex="1" parent="1">
          <mxGeometry x="480" y="80" width="50" height="50" as="geometry" />
        </mxCell>
        <mxCell id="XhimP7yNyc7SuA0uO1DH-17" value="Neuanforderung" style="text;html=1;strokeColor=none;fillColor=none;align=center;verticalAlign=middle;whiteSpace=wrap;rounded=0;rotation=0;" vertex="1" parent="1">
          <mxGeometry x="520" y="22" width="60" height="30" as="geometry" />
        </mxCell>
        <mxCell id="XhimP7yNyc7SuA0uO1DH-19" value="Frage" style="text;html=1;strokeColor=none;fillColor=none;align=center;verticalAlign=middle;whiteSpace=wrap;rounded=0;rotation=0;" vertex="1" parent="1">
          <mxGeometry x="510" y="52" width="60" height="30" as="geometry" />
        </mxCell>
        <mxCell id="XhimP7yNyc7SuA0uO1DH-20" value="Incident/Fehler" style="text;html=1;strokeColor=none;fillColor=none;align=center;verticalAlign=middle;whiteSpace=wrap;rounded=0;rotation=0;" vertex="1" parent="1">
          <mxGeometry x="530" y="80" width="100" height="35" as="geometry" />
        </mxCell>
        <mxCell id="XhimP7yNyc7SuA0uO1DH-28" style="edgeStyle=orthogonalEdgeStyle;rounded=0;orthogonalLoop=1;jettySize=auto;html=1;" edge="1" parent="1" source="XhimP7yNyc7SuA0uO1DH-23" target="8k82SryMJ40sSkUZ9wEO-4">
          <mxGeometry relative="1" as="geometry" />
        </mxCell>
        <mxCell id="XhimP7yNyc7SuA0uO1DH-29" style="edgeStyle=orthogonalEdgeStyle;rounded=0;orthogonalLoop=1;jettySize=auto;html=1;entryX=0;entryY=0.5;entryDx=0;entryDy=0;" edge="1" parent="1" source="XhimP7yNyc7SuA0uO1DH-23" target="XhimP7yNyc7SuA0uO1DH-1">
          <mxGeometry relative="1" as="geometry">
            <Array as="points">
              <mxPoint x="245" y="110" />
            </Array>
          </mxGeometry>
        </mxCell>
        <mxCell id="XhimP7yNyc7SuA0uO1DH-23" value="" style="points=[[0.25,0.25,0],[0.5,0,0],[0.75,0.25,0],[1,0.5,0],[0.75,0.75,0],[0.5,1,0],[0.25,0.75,0],[0,0.5,0]];shape=mxgraph.bpmn.gateway2;html=1;verticalLabelPosition=bottom;labelBackgroundColor=#ffffff;verticalAlign=top;align=center;perimeter=rhombusPerimeter;outlineConnect=0;outline=none;symbol=none;gwType=exclusive;" vertex="1" parent="1">
          <mxGeometry x="220" y="-117.49000000000001" width="50" height="50" as="geometry" />
        </mxCell>
        <mxCell id="XhimP7yNyc7SuA0uO1DH-26" value="Der Kunde meldet sich entweder per Mail/Telefon oder erstellt selbst ein Ticket" style="text;html=1;strokeColor=none;fillColor=none;align=center;verticalAlign=middle;whiteSpace=wrap;rounded=0;" vertex="1" parent="1">
          <mxGeometry x="160" y="-176.87" width="170" height="40" as="geometry" />
        </mxCell>
      </root>
    </mxGraphModel>
  </diagram>
</mxfile>
